Coordinates
version=1
nRows=29
nColumns=24
inDegrees=yes

Units are S.I. units (second, meters, Newtons, ...)
Angles are in degrees.

endheader
time	pelvis_tilt	pelvis_list	pelvis_rotation	pelvis_tx	pelvis_ty	pelvis_tz	hip_flexion_r	hip_adduction_r	hip_rotation_r	knee_angle_r	ankle_angle_r	subtalar_angle_r	mtp_angle_r	hip_flexion_l	hip_adduction_l	hip_rotation_l	knee_angle_l	ankle_angle_l	subtalar_angle_l	mtp_angle_l	lumbar_extension	lumbar_bending	lumbar_rotation
      1.83000000	     22.62672326	     -5.68566118	      8.13538142	      0.16866771	      0.85575970	     -0.03742640	    -22.55761172	     13.12277581	    -21.18062596	     -0.16533006	     21.47532421	     12.52378726	     37.63558283	     -5.44865706	    -10.92024387	     -5.62746248	    -63.98831048	     20.09404468	      0.12943032	     50.46296740	    -36.17540702	     10.00267984	     -8.77032930
      1.83500000	     22.57099989	     -5.49518719	      7.96067937	      0.17398831	      0.85612380	     -0.03675756	    -22.99384685	     12.95477280	    -21.16255393	     -0.03631602	     21.71893383	     12.76372232	     37.46920934	     -4.88667779	    -10.55805808	     -5.95426563	    -63.08374479	     20.71773542	      0.57042211	     50.29267332	    -36.18602528	      9.68337170	     -8.67671601
      1.84000000	     22.52877338	     -5.29798631	      7.79771070	      0.17932587	      0.85646508	     -0.03612612	    -23.44090881	     12.78174246	    -21.13822803	      0.08181158	     21.98197000	     12.97712690	     37.23746867	     -4.36192655	    -10.19412922	     -6.28788333	    -62.07938192	     21.29647430	      0.99323680	     50.03973264	    -36.20472406	      9.36485071	     -8.58848605
      1.84500000	     22.46657503	     -5.09716402	      7.69279963	      0.18466787	      0.85671940	     -0.03564640	    -23.84013150	     12.61005595	    -21.22597869	      0.13330144	     22.40090553	     13.45172361	     35.31759799	     -3.81531331	     -9.80409384	     -6.52946517	    -61.01842426	     21.99861952	      1.45126453	     47.88290829	    -36.19164346	      9.07873277	     -8.56993941
      1.85000000	     22.42225970	     -4.91170337	      7.54121334	      0.18999629	      0.85694161	     -0.03505573	    -24.27806771	     12.44944471	    -21.08551921	      0.25100436	     22.64859424	     13.44066990	     35.26280824	     -3.32085147	     -9.45383541	     -6.86526150	    -59.84411901	     22.45391984	      1.72852496	     47.88900080	    -36.20400051	      8.77601654	     -8.48279588
      1.85500000	     22.40076148	     -4.70763700	      7.41465353	      0.19535953	      0.85716241	     -0.03452293	    -24.74349872	     12.27974220	    -20.97509275	      0.37085295	     22.87357588	     13.44849571	     35.16253230	     -2.88222351	     -9.08453365	     -7.17952303	    -58.56201291	     22.87867879	      1.96678792	     47.83461079	    -36.23281724	      8.46873201	     -8.43719569
      1.86000000	     22.39793326	     -4.49819296	      7.29665762	      0.20073878	      0.85735540	     -0.03402691	    -25.22456606	     12.10608183	    -20.86107210	      0.47870362	     23.11286019	     13.43977630	     35.01175401	     -2.49324057	     -8.70959560	     -7.48823696	    -57.18542509	     23.26376722	      2.15578065	     47.72040134	    -36.27611782	      8.16232868	     -8.38991672
      1.86500000	     22.41157972	     -4.28324693	      7.21363515	      0.20611990	      0.85751497	     -0.03365694	    -25.70773845	     11.92904268	    -20.79584802	      0.53476353	     23.48515554	     13.60139411	     33.39767911	     -2.14347307	     -8.31765915	     -7.75003476	    -55.73028493	     23.71935376	      2.37879487	     46.42792643	    -36.33245101	      7.88027035	     -8.39387777
      1.87000000	     22.40483582	     -4.08292901	      7.11078999	      0.21152429	      0.85759565	     -0.03323806	    -26.17016818	     11.76060408	    -20.63271949	      0.61039377	     23.76720792	     13.48877920	     33.35321319	     -1.79736368	     -7.95220307	     -8.05527192	    -54.19048609	     24.01715922	      2.50538855	     46.41547917	    -36.36330347	      7.59469517	     -8.36257869
      1.87500000	     22.45212430	     -3.86245288	      7.02340399	      0.21693335	      0.85769999	     -0.03286546	    -26.69775178	     11.58116487	    -20.46274088	      0.69488771	     23.99928148	     13.36145350	     33.25068221	     -1.55072231	     -7.56713426	     -8.34554841	    -52.54159903	     24.28880304	      2.59085348	     46.35804163	    -36.45191536	      7.30133723	     -8.36226710
      1.88000000	     22.50639427	     -3.64377386	      6.92891659	      0.22237507	      0.85779104	     -0.03252732	    -27.23473300	     11.39792067	    -20.28901322	      0.78151720	     24.19022416	     13.23889855	     33.04956677	     -1.35456719	     -7.18173613	     -8.65962368	    -50.78718569	     24.54352218	      2.64960891	     46.24288881	    -36.54401498	      7.01044623	     -8.36692117
      1.88500000	     22.56358801	     -3.41670703	      6.87505858	      0.22782831	      0.85780214	     -0.03228479	    -27.76804383	     11.21826514	    -20.14517402	      0.83883514	     24.59398722	     13.18877942	     31.67918120	     -1.17813362	     -6.78034851	     -8.91020126	    -48.97608876	     24.82985247	      2.78641054	     45.53500662	    -36.63222418	      6.73742055	     -8.41615147
      1.89000000	     22.63548428	     -3.19607002	      6.78624015	      0.23327320	      0.85782362	     -0.03202125	    -28.30130877	     11.02180479	    -19.93547755	      0.86166644	     24.86917581	     13.00100021	     31.61888124	     -1.07070493	     -6.38874183	     -9.21369546	    -47.03930524	     24.99965974	      2.90033608	     45.50759504	    -36.74146296	      6.45442164	     -8.43761619
      1.89500000	     22.71932116	     -2.96239823	      6.70872294	      0.23877412	      0.85781696	     -0.03180117	    -28.86791636	     10.82341954	    -19.75090194	      0.92944296	     25.09013450	     12.81377764	     31.49102449	     -1.01482787	     -5.98170824	     -9.51719505	    -45.02149097	     25.17730837	      3.01933218	     45.46095442	    -36.85532029	      6.16512881	     -8.47366206
      1.90000000	     22.82248690	     -2.72745208	      6.64224867	      0.24424939	      0.85778046	     -0.03162605	    -29.44070011	     10.62190529	    -19.54593298	      0.95962338	     25.37939685	     12.59858057	     31.35246445	     -1.01510907	     -5.57151247	     -9.80414989	    -42.91407266	     25.30955411	      3.20612740	     45.41089456	    -36.99303538	      5.88493699	     -8.56405483
      1.90500000	     22.94567571	     -2.48118130	      6.55568761	      0.24979750	      0.85775489	     -0.03147474	    -30.05784220	     10.40390117	    -19.36345618	      1.03063952	     25.59788945	     12.42167401	     31.14135419	     -1.10242109	     -5.14417128	    -10.13058385	    -40.68464816	     25.43911902	      3.42093869	     45.35055692	    -37.14485554	      5.58901439	     -8.59703520
      1.91000000	     23.06957640	     -2.23463852	      6.47976071	      0.25532239	      0.85767896	     -0.03136473	    -30.65502755	     10.18140839	    -19.17214752	      1.05124820	     25.89277119	     12.22090737	     30.94086527	     -1.22168318	     -4.71254291	    -10.44173584	    -38.38413776	     25.51613762	      3.71248289	     45.29902487	    -37.30043804	      5.30048820	     -8.72346829
      1.91500000	     23.22154167	     -1.97797323	      6.38374649	      0.26093228	      0.85761820	     -0.03127794	    -31.30943563	      9.94522053	    -19.01717626	      1.12124098	     26.11162800	     12.10026589	     30.65205585	     -1.44370057	     -4.26117562	    -10.78353464	    -35.95657829	     25.58800725	      4.04122823	     45.24724841	    -37.47538221	      4.99568635	     -8.76017445
      1.92000000	     23.37762681	     -1.72017837	      6.29181388	      0.26653366	      0.85751719	     -0.03124002	    -31.95576043	      9.70275188	    -18.87310898	      1.15753484	     26.38149080	     11.98385518	     30.34633027	     -1.70873902	     -3.79970783	    -11.11714042	    -33.45132944	     25.59926866	      4.44070545	     45.20836637	    -37.65663961	      4.69731871	     -8.85942417
      1.92500000	     23.53496286	     -1.44598457	      6.21287489	      0.27220273	      0.85737525	     -0.03130174	    -32.57346643	      9.43626753	    -18.92595552	      1.09468503	     26.88369895	     12.24399858	     28.90001265	     -2.02744194	     -3.30738499	    -11.43793452	    -30.85919550	     25.56744524	      4.91553306	     45.21241804	    -37.82893746	      4.39740351	     -8.99869154
      1.93000000	     23.69354939	     -1.20599812	      6.11329438	      0.27783204	      0.85718829	     -0.03131092	    -33.24289003	      9.21011855	    -18.72548071	      1.18452929	     27.07638752	     11.96975632	     28.76981625	     -2.38042784	     -2.84222873	    -11.75631323	    -28.20658274	     25.45444346	      5.37404062	     45.19787495	    -38.00709005	      4.11448468	     -9.09348983
      1.93500000	     23.85690343	     -0.96692649	      6.00954347	      0.28353935	      0.85696289	     -0.03137565	    -33.90503438	      8.97450423	    -18.64356894	      1.22963287	     27.30893856	     11.90370737	     28.62168817	     -2.78988604	     -2.36812467	    -12.09125096	    -25.48525726	     25.29864284	      5.91333929	     45.21687412	    -38.17859612	      3.83513332	     -9.19448640
      1.94000000	     24.02413682	     -0.73837007	      5.91017951	      0.28926795	      0.85668769	     -0.03149737	    -34.56864182	      8.74754895	    -18.61122326	      1.26568252	     27.56042425	     11.89841268	     28.45941195	     -3.23863255	     -1.89126937	    -12.40197179	    -22.72212868	     25.05537617	      6.47337370	     45.25931610	    -38.35102795	      3.57370454	     -9.31090897
      1.94500000	     24.17666630	     -0.53227585	      5.81907318	      0.29505057	      0.85633214	     -0.03165871	    -35.21579961	      8.54369007	    -18.61103095	      1.29652633	     27.81300553	     11.93170397	     28.28726137	     -3.69769209	     -1.42809145	    -12.68517171	    -19.95017188	     24.73675923	      7.03911583	     45.33190124	    -38.49519042	      3.33672488	     -9.41776531
      1.95000000	     24.32204138	     -0.35269437	      5.73469836	      0.30086316	      0.85589926	     -0.03186742	    -35.85145823	      8.36442399	    -18.64099630	      1.31844489	     28.06639199	     12.00217942	     28.11316044	     -4.16846862	     -0.98383914	    -12.93964814	    -17.19084433	     24.33698450	      7.60434268	     45.43982891	    -38.62566633	      3.13110980	     -9.52720851
      1.95500000	     24.45862762	     -0.20629709	      5.66154359	      0.30670619	      0.85538576	     -0.03211216	    -36.47330619	      8.21926257	    -18.70086829	      1.33149349	     28.32112899	     12.11675485	     27.93249805	     -4.64407937	     -0.56948394	    -13.15221678	    -14.47111742	     23.84625198	      8.15590730	     45.59454212	    -38.73850239	      2.96212927	     -9.62754072
      1.96000000	     24.57934413	     -0.09998021	      5.60101569	      0.31258582	      0.85478319	     -0.03239961	    -37.07168153	      8.11294894	    -18.77593142	      1.32866746	     28.57213551	     12.26988781	     27.75073030	     -5.10685994	     -0.19411528	    -13.32012288	    -11.83660825	     23.28852751	      8.67654102	     45.80266355	    -38.82467140	      2.83712538	     -9.72098574
      1.96500000	     24.67387649	     -0.03900162	      5.58395750	      0.31847547	      0.85409677	     -0.03281858	    -37.58433231	      8.04983077	    -19.05604087	      1.18766585	     28.92412821	     12.77218840	     27.21473222	     -5.52967018	      0.13476162	    -13.40425933	     -9.32184645	     22.57637910	      9.08491376	     46.71727740	    -38.87616628	      2.78646842	     -9.82253093
      1.97000000	     24.73754092	     -0.02627972	      5.54573449	      0.32435911	      0.85329367	     -0.03307932	    -38.12953251	      8.04341408	    -18.97554336	      1.22936168	     29.11016637	     12.66738975	     27.11581010	     -5.87423646	      0.38923381	    -13.50905418	     -7.05760278	     21.99911998	      9.59256943	     46.85802194	    -38.89298101	      2.74621098	     -9.90512092
